<?xml version="1.0" encoding="UTF-8" standalone="no"?>
<!-- Created with Inkscape (http://www.inkscape.org/) -->

<svg
   version="1.1"
   id="svg2"
   width="2666.6667"
   height="2666.6667"
   viewBox="0 0 2666.6667 2666.6667"
   sodipodi:docname="logovettoriale_animè.ai"
   xmlns:inkscape="http://www.inkscape.org/namespaces/inkscape"
   xmlns:sodipodi="http://sodipodi.sourceforge.net/DTD/sodipodi-0.dtd"
   xmlns="http://www.w3.org/2000/svg"
   xmlns:svg="http://www.w3.org/2000/svg">
  <defs
     id="defs6">
    <clipPath
       clipPathUnits="userSpaceOnUse"
       id="clipPath20">
      <path
         d="M 0,2000 H 2000 V 0 H 0 Z"
         id="path18" />
    </clipPath>
  </defs>
  <sodipodi:namedview
     id="namedview4"
     pagecolor="#ffffff"
     bordercolor="#000000"
     borderopacity="0.25"
     inkscape:showpageshadow="2"
     inkscape:pageopacity="0.0"
     inkscape:pagecheckerboard="0"
     inkscape:deskcolor="#d1d1d1" />
  <g
     id="g8"
     inkscape:groupmode="layer"
     inkscape:label="logovettoriale_animè"
     transform="matrix(1.3333333,0,0,-1.3333333,0,2666.6667)">
    <g
       id="g10"
       transform="translate(657.4271,1520.8927)">
      <path
         d="m 0,0 -96.106,-244.004 h -36.542 L -36.831,0 Z"
         style="fill:#7f8080;fill-opacity:1;fill-rule:nonzero;stroke:none"
         id="path12" />
    </g>
    <g
       id="g14">
      <g
         id="g16"
         clip-path="url(#clipPath20)">
        <g
           id="g22"
           transform="translate(690.7692,1371.5563)">
          <path
             d="m 0,0 c 0,-27.048 18.704,-43.161 42.01,-43.161 55.246,0 55.246,86.033 0,86.033 C 18.704,42.872 0,27.046 0,0 m 85.171,70.784 h 33.665 V -71.072 h -33.09 l -1.725,20.718 C 75.964,-67.044 53.807,-75.1 37.983,-75.388 -4.028,-75.677 -35.103,-49.779 -35.103,0 c 0,48.916 32.514,74.523 73.948,74.236 18.992,0 37.119,-8.92 45.176,-23.02 z"
             style="fill:#1d1d1b;fill-opacity:1;fill-rule:nonzero;stroke:none"
             id="path24" />
        </g>
        <g
           id="g26"
           transform="translate(949.1701,1300.4841)">
          <path
             d="m 0,0 v 74.236 c 0,21.582 -11.797,37.983 -34.24,37.983 -21.581,0 -36.255,-18.129 -36.255,-39.708 V 0 h -34.817 v 142.143 h 31.364 l 2.301,-19.278 c 14.387,14.099 28.775,21.292 46.615,21.292 33.378,0 60.137,-25.033 60.137,-69.632 V 0 Z"
             style="fill:#1d1d1b;fill-opacity:1;fill-rule:nonzero;stroke:none"
             id="path28" />
        </g>
        <g
           id="g30"
           transform="translate(1055.4008,1482.3348)">
          <path
             d="M 0,0 C 0,-27.334 -41.435,-27.334 -41.435,0 -41.435,27.336 0,27.336 0,0"
             style="fill:#1d1d1b;fill-opacity:1;fill-rule:nonzero;stroke:none"
             id="path32" />
        </g>
        <path
           d="m 1017.131,1300.484 h 35.104 v 142.431 h -35.104 z"
           style="fill:#1d1d1b;fill-opacity:1;fill-rule:nonzero;stroke:none"
           id="path34" />
        <g
           id="g36"
           transform="translate(1177.4681,1300.4841)">
          <path
             d="m 0,0 v 75.964 c 0,18.702 -9.783,35.678 -29.06,35.678 -18.992,0 -30.214,-16.976 -30.214,-35.678 V 0 h -35.103 v 142.143 h 32.514 l 2.589,-17.264 c 7.482,14.386 23.882,19.566 37.406,19.566 16.977,0 33.953,-6.905 42.01,-26.473 12.661,20.143 29.062,25.898 47.478,25.898 40.284,0 60.137,-24.746 60.137,-67.331 V 0 H 92.653 v 76.539 c 0,18.703 -7.769,34.528 -26.761,34.528 -18.989,0 -30.788,-16.401 -30.788,-35.103 V 0 Z"
             style="fill:#1d1d1b;fill-opacity:1;fill-rule:nonzero;stroke:none"
             id="path38" />
        </g>
        <g
           id="g40"
           transform="translate(1371.6025,1505.6416)">
          <path
             d="m 0,0 h 41.435 l 21.293,-39.131 v -1.727 H 31.652 L 0,-1.439 Z"
             style="fill:#7f8080;fill-opacity:1;fill-rule:nonzero;stroke:none"
             id="path42" />
        </g>
        <g
           id="g44"
           transform="translate(1375.3435,1387.9561)">
          <path
             d="m 0,0 c 5.181,18.415 20.719,27.625 39.708,27.625 20.143,0 34.53,-9.21 36.831,-27.625 z m 38.558,58.7 c -46.037,0 -75.389,-31.075 -75.389,-74.238 0,-45.461 29.062,-75.675 77.979,-75.675 21.58,0 46.037,7.482 61.001,23.02 l -22.443,22.156 c -8.059,-8.345 -25.034,-13.237 -37.984,-13.237 -24.744,0 -39.995,12.661 -42.296,30.214 H 110.205 C 115.673,29.35 86.035,58.7 38.558,58.7"
             style="fill:#1d1d1b;fill-opacity:1;fill-rule:nonzero;stroke:none"
             id="path46" />
        </g>
        <g
           id="g48"
           transform="translate(657.4271,1159.226)">
          <path
             d="m 0,0 -96.106,-244.004 h -36.542 L -36.831,0 Z"
             style="fill:#ffffff;fill-opacity:1;fill-rule:nonzero;stroke:none"
             id="path50" />
        </g>
        <g
           id="g52"
           transform="translate(690.7692,1009.8896)">
          <path
             d="m 0,0 c 0,-27.048 18.704,-43.161 42.01,-43.161 55.246,0 55.246,86.033 0,86.033 C 18.704,42.872 0,27.046 0,0 m 85.171,70.784 h 33.665 V -71.072 h -33.09 l -1.725,20.717 C 75.964,-67.044 53.807,-75.1 37.983,-75.388 -4.028,-75.677 -35.103,-49.779 -35.103,0 c 0,48.916 32.514,74.523 73.948,74.236 18.992,0 37.119,-8.921 45.176,-23.02 z"
             style="fill:#ffffff;fill-opacity:1;fill-rule:nonzero;stroke:none"
             id="path54" />
        </g>
        <g
           id="g56"
           transform="translate(949.1701,938.8174)">
          <path
             d="m 0,0 v 74.236 c 0,21.582 -11.797,37.983 -34.24,37.983 -21.581,0 -36.255,-18.128 -36.255,-39.708 V 0 h -34.817 v 142.143 h 31.364 l 2.301,-19.278 c 14.387,14.099 28.775,21.292 46.615,21.292 33.378,0 60.137,-25.033 60.137,-69.632 V 0 Z"
             style="fill:#ffffff;fill-opacity:1;fill-rule:nonzero;stroke:none"
             id="path58" />
        </g>
        <g
           id="g60"
           transform="translate(1055.4008,1120.6682)">
          <path
             d="M 0,0 C 0,-27.335 -41.435,-27.335 -41.435,0 -41.435,27.336 0,27.336 0,0"
             style="fill:#ffffff;fill-opacity:1;fill-rule:nonzero;stroke:none"
             id="path62" />
        </g>
        <path
           d="m 1017.131,938.817 h 35.104 v 142.431 h -35.104 z"
           style="fill:#ffffff;fill-opacity:1;fill-rule:nonzero;stroke:none"
           id="path64" />
        <g
           id="g66"
           transform="translate(1177.4681,938.8174)">
          <path
             d="m 0,0 v 75.964 c 0,18.702 -9.783,35.678 -29.06,35.678 -18.992,0 -30.214,-16.976 -30.214,-35.678 V 0 h -35.103 v 142.143 h 32.514 l 2.589,-17.264 c 7.482,14.386 23.882,19.566 37.406,19.566 16.977,0 33.953,-6.905 42.01,-26.473 12.661,20.143 29.062,25.898 47.478,25.898 40.284,0 60.137,-24.746 60.137,-67.331 V 0 H 92.653 v 76.539 c 0,18.703 -7.769,34.528 -26.761,34.528 -18.989,0 -30.788,-16.401 -30.788,-35.103 V 0 Z"
             style="fill:#ffffff;fill-opacity:1;fill-rule:nonzero;stroke:none"
             id="path68" />
        </g>
        <g
           id="g70"
           transform="translate(1371.6025,1143.975)">
          <path
             d="m 0,0 h 41.435 l 21.293,-39.131 v -1.728 H 31.652 L 0,-1.439 Z"
             style="fill:#ffffff;fill-opacity:1;fill-rule:nonzero;stroke:none"
             id="path72" />
        </g>
        <g
           id="g74"
           transform="translate(1375.3435,1026.2894)">
          <path
             d="m 0,0 c 5.181,18.415 20.719,27.625 39.708,27.625 20.143,0 34.53,-9.21 36.831,-27.625 z m 38.558,58.7 c -46.037,0 -75.389,-31.075 -75.389,-74.238 0,-45.461 29.062,-75.675 77.979,-75.675 21.58,0 46.037,7.482 61.001,23.02 l -22.443,22.156 c -8.059,-8.345 -25.034,-13.237 -37.984,-13.237 -24.744,0 -39.995,12.661 -42.296,30.214 H 110.205 C 115.673,29.35 86.035,58.7 38.558,58.7"
             style="fill:#ffffff;fill-opacity:1;fill-rule:nonzero;stroke:none"
             id="path76" />
        </g>
        <g
           id="g78"
           transform="translate(657.4271,778.2828)">
          <path
             d="m 0,0 -96.106,-244.004 h -36.542 L -36.831,0 Z"
             style="fill:#1d1d1b;fill-opacity:1;fill-rule:nonzero;stroke:none"
             id="path80" />
        </g>
        <g
           id="g82"
           transform="translate(690.7692,628.9464)">
          <path
             d="m 0,0 c 0,-27.048 18.704,-43.161 42.01,-43.161 55.246,0 55.246,86.033 0,86.033 C 18.704,42.872 0,27.046 0,0 m 85.171,70.784 h 33.665 V -71.072 h -33.09 l -1.725,20.718 C 75.964,-67.044 53.807,-75.1 37.983,-75.388 -4.028,-75.677 -35.103,-49.779 -35.103,0 c 0,48.916 32.514,74.523 73.948,74.236 18.992,0 37.119,-8.92 45.176,-23.02 z"
             style="fill:#1d1d1b;fill-opacity:1;fill-rule:nonzero;stroke:none"
             id="path84" />
        </g>
        <g
           id="g86"
           transform="translate(949.1701,557.8743)">
          <path
             d="m 0,0 v 74.236 c 0,21.582 -11.797,37.983 -34.24,37.983 -21.581,0 -36.255,-18.129 -36.255,-39.708 V 0 h -34.817 v 142.143 h 31.364 l 2.301,-19.278 c 14.387,14.099 28.775,21.292 46.615,21.292 33.378,0 60.137,-25.033 60.137,-69.632 V 0 Z"
             style="fill:#1d1d1b;fill-opacity:1;fill-rule:nonzero;stroke:none"
             id="path88" />
        </g>
        <g
           id="g90"
           transform="translate(1055.4008,739.725)">
          <path
             d="M 0,0 C 0,-27.335 -41.435,-27.335 -41.435,0 -41.435,27.336 0,27.336 0,0"
             style="fill:#1d1d1b;fill-opacity:1;fill-rule:nonzero;stroke:none"
             id="path92" />
        </g>
        <path
           d="m 1017.131,557.874 h 35.104 v 142.431 h -35.104 z"
           style="fill:#1d1d1b;fill-opacity:1;fill-rule:nonzero;stroke:none"
           id="path94" />
        <g
           id="g96"
           transform="translate(1177.4681,557.8743)">
          <path
             d="m 0,0 v 75.964 c 0,18.702 -9.783,35.678 -29.06,35.678 -18.992,0 -30.214,-16.976 -30.214,-35.678 V 0 h -35.103 v 142.143 h 32.514 l 2.589,-17.264 c 7.482,14.386 23.882,19.566 37.406,19.566 16.977,0 33.953,-6.905 42.01,-26.473 12.661,20.143 29.062,25.898 47.478,25.898 40.284,0 60.137,-24.746 60.137,-67.331 V 0 H 92.653 v 76.539 c 0,18.703 -7.769,34.528 -26.761,34.528 -18.989,0 -30.788,-16.401 -30.788,-35.103 V 0 Z"
             style="fill:#1d1d1b;fill-opacity:1;fill-rule:nonzero;stroke:none"
             id="path98" />
        </g>
        <g
           id="g100"
           transform="translate(1371.6025,763.0318)">
          <path
             d="m 0,0 h 41.435 l 21.293,-39.131 v -1.727 H 31.652 L 0,-1.439 Z"
             style="fill:#1d1d1b;fill-opacity:1;fill-rule:nonzero;stroke:none"
             id="path102" />
        </g>
        <g
           id="g104"
           transform="translate(1375.3435,645.3463)">
          <path
             d="m 0,0 c 5.181,18.415 20.719,27.625 39.708,27.625 20.143,0 34.53,-9.21 36.831,-27.625 z m 38.558,58.7 c -46.037,0 -75.389,-31.075 -75.389,-74.238 0,-45.461 29.062,-75.675 77.979,-75.675 21.58,0 46.037,7.482 61.001,23.02 l -22.443,22.156 c -8.059,-8.345 -25.034,-13.237 -37.984,-13.237 -24.744,0 -39.995,12.661 -42.296,30.214 H 110.205 C 115.673,29.35 86.035,58.7 38.558,58.7"
             style="fill:#1d1d1b;fill-opacity:1;fill-rule:nonzero;stroke:none"
             id="path106" />
        </g>
      </g>
    </g>
  </g>
</svg>
